<?xml version="1.0" encoding="UTF-8" standalone="no"?>
<!DOCTYPE svg PUBLIC "-//W3C//DTD SVG 1.1//EN"
 "http://www.w3.org/Graphics/SVG/1.1/DTD/svg11.dtd">
<!-- Generated by graphviz version 2.43.0 (0)
 -->
<!-- Title: G Pages: 1 -->
<svg width="772pt" height="484pt"
 viewBox="0.00 0.00 771.83 484.15" xmlns="http://www.w3.org/2000/svg" xmlns:xlink="http://www.w3.org/1999/xlink">
<g id="graph0" class="graph" transform="scale(1 1) rotate(0) translate(4 480.15)">
<title>G</title>
<polygon fill="white" stroke="transparent" points="-4,4 -4,-480.15 767.83,-480.15 767.83,4 -4,4"/>
<!-- n1 -->
<g id="node1" class="node">
<title>n1</title>
<ellipse fill="none" stroke="black" cx="296.24" cy="-424.54" rx="21.84" ry="10.71"/>
<text text-anchor="middle" x="296.24" y="-420.84" font-family="Times,serif" font-size="14.00">X:Ω₀</text>
</g>
<!-- n2 -->
<g id="node2" class="node">
<title>n2</title>
<ellipse fill="none" stroke="black" cx="307.24" cy="-346.12" rx="21.84" ry="10.71"/>
<text text-anchor="middle" x="307.24" y="-342.42" font-family="Times,serif" font-size="14.00">V:Ω₀</text>
</g>
<!-- n1&#45;&gt;n2 -->
<g id="edge10" class="edge">
<title>n1&#45;&gt;n2</title>
<path fill="none" stroke="black" d="M294.35,-413.68C292.8,-403.73 291.28,-387.97 294.24,-374.72 295.27,-370.12 297.16,-365.37 299.18,-361.14"/>
<polygon fill="black" stroke="black" points="300.86,-361.7 301.58,-356.45 297.74,-360.11 300.86,-361.7"/>
<text text-anchor="middle" x="300.24" y="-381.63" font-family="Times,serif" font-size="14.00">∂ₜ</text>
</g>
<!-- n18 -->
<g id="node18" class="node">
<title>n18</title>
<polygon fill="none" stroke="black" points="243.74,-209.19 194.74,-209.19 194.74,-194.19 243.74,-194.19 243.74,-209.19"/>
<text text-anchor="middle" x="219.24" y="-197.99" font-family="Times,serif" font-size="14.00">Ω•×Ω₀</text>
</g>
<!-- n1&#45;&gt;n18 -->
<g id="edge18" class="edge">
<title>n1&#45;&gt;n18</title>
<path fill="none" stroke="black" stroke-dasharray="5,2" d="M290.56,-414.25C279.78,-396.24 256.29,-355.02 243.24,-317.51 230.52,-280.96 223.46,-235.41 220.66,-214.36"/>
<polygon fill="black" stroke="black" points="222.39,-214.06 220.02,-209.32 218.92,-214.51 222.39,-214.06"/>
<text text-anchor="middle" x="250.74" y="-306.31" font-family="Times,serif" font-size="14.00">π₂</text>
</g>
<!-- n5 -->
<g id="node5" class="node">
<title>n5</title>
<ellipse fill="none" stroke="black" cx="376.24" cy="-126.65" rx="75.82" ry="10.71"/>
<text text-anchor="middle" x="376.24" y="-122.95" font-family="Times,serif" font-size="14.00">oscillator_V̇:Ω•</text>
</g>
<!-- n2&#45;&gt;n5 -->
<g id="edge11" class="edge">
<title>n2&#45;&gt;n5</title>
<path fill="none" stroke="black" d="M307,-335.31C306.75,-310.27 308.2,-242.31 329.24,-191.08 337.1,-171.95 352.03,-153.32 362.96,-141.26"/>
<polygon fill="black" stroke="black" points="364.39,-142.29 366.5,-137.43 361.82,-139.92 364.39,-142.29"/>
<text text-anchor="middle" x="323.24" y="-234.1" font-family="Times,serif" font-size="14.00">∂ₜ</text>
</g>
<!-- n16 -->
<g id="node16" class="node">
<title>n16</title>
</g>
<!-- n2&#45;&gt;n16 -->
<g id="edge7" class="edge">
<title>n2&#45;&gt;n16</title>
<path fill="none" stroke="black" d="M299.12,-335.85C288.78,-323.07 272.24,-298.87 272.24,-274.9 272.24,-274.9 272.24,-274.9 272.24,-50.61 272.24,-7.95 345.46,-3.36 369.03,-2.99"/>
<polygon fill="black" stroke="black" points="369.07,-4.74 374.07,-2.96 369.06,-1.24 369.07,-4.74"/>
</g>
<!-- n19 -->
<g id="node19" class="node">
<title>n19</title>
<polygon fill="none" stroke="black" points="407.74,-281.4 356.74,-281.4 356.74,-266.4 407.74,-266.4 407.74,-281.4"/>
<text text-anchor="middle" x="382.24" y="-270.2" font-family="Times,serif" font-size="14.00">ΩC×Ω₀</text>
</g>
<!-- n2&#45;&gt;n19 -->
<g id="edge21" class="edge">
<title>n2&#45;&gt;n19</title>
<path fill="none" stroke="black" stroke-dasharray="5,2" d="M316.74,-336.22C330.72,-323.14 356.76,-298.76 371.44,-285.01"/>
<polygon fill="black" stroke="black" points="372.81,-286.13 375.26,-281.43 370.42,-283.57 372.81,-286.13"/>
<text text-anchor="middle" x="359.74" y="-306.31" font-family="Times,serif" font-size="14.00">π₂</text>
</g>
<!-- n3 -->
<g id="node3" class="node">
<title>n3</title>
<ellipse fill="none" stroke="black" cx="88.24" cy="-424.54" rx="76.24" ry="10.71"/>
<text text-anchor="middle" x="88.24" y="-420.84" font-family="Times,serif" font-size="14.00">oscillator_k:ΩC</text>
</g>
<!-- n17 -->
<g id="node17" class="node">
<title>n17</title>
<polygon fill="none" stroke="black" points="130.74,-353.62 75.74,-353.62 75.74,-338.62 130.74,-338.62 130.74,-353.62"/>
<text text-anchor="middle" x="103.24" y="-342.42" font-family="Times,serif" font-size="14.00">ΩL×ΩC</text>
</g>
<!-- n3&#45;&gt;n17 -->
<g id="edge15" class="edge">
<title>n3&#45;&gt;n17</title>
<path fill="none" stroke="black" stroke-dasharray="5,2" d="M90.14,-413.86C92.89,-399.84 97.98,-373.91 100.94,-358.83"/>
<polygon fill="black" stroke="black" points="102.68,-359.05 101.93,-353.8 99.25,-358.37 102.68,-359.05"/>
<text text-anchor="middle" x="105.74" y="-381.63" font-family="Times,serif" font-size="14.00">π₂</text>
</g>
<!-- n4 -->
<g id="node4" class="node">
<title>n4</title>
<ellipse fill="none" stroke="black" cx="103.24" cy="-273.9" rx="103.48" ry="10.71"/>
<text text-anchor="middle" x="103.24" y="-270.2" font-family="Times,serif" font-size="14.00">oscillator_mult_1:Ω•</text>
</g>
<!-- n4&#45;&gt;n18 -->
<g id="edge17" class="edge">
<title>n4&#45;&gt;n18</title>
<path fill="none" stroke="black" stroke-dasharray="5,2" d="M119.37,-263.14C141.8,-249.56 182.13,-225.15 204.05,-211.88"/>
<polygon fill="black" stroke="black" points="205.06,-213.31 208.44,-209.23 203.25,-210.32 205.06,-213.31"/>
<text text-anchor="middle" x="179.74" y="-234.1" font-family="Times,serif" font-size="14.00">π₁</text>
</g>
<!-- n5&#45;&gt;n16 -->
<g id="edge8" class="edge">
<title>n5&#45;&gt;n16</title>
<path fill="none" stroke="black" d="M376.24,-116.02C376.24,-91.87 376.24,-29.21 376.24,-9.22"/>
<polygon fill="black" stroke="black" points="377.99,-9.2 376.24,-4.2 374.49,-9.2 377.99,-9.2"/>
</g>
<!-- n6 -->
<g id="node6" class="node">
<title>n6</title>
<ellipse fill="none" stroke="black" cx="210.24" cy="-424.54" rx="27.65" ry="10.71"/>
<text text-anchor="middle" x="210.24" y="-420.84" font-family="Times,serif" font-size="14.00">&#45;1:ΩL</text>
</g>
<!-- n6&#45;&gt;n17 -->
<g id="edge14" class="edge">
<title>n6&#45;&gt;n17</title>
<path fill="none" stroke="black" stroke-dasharray="5,2" d="M197.96,-414.78C177.77,-400.35 137.7,-371.73 116.74,-356.76"/>
<polygon fill="black" stroke="black" points="117.65,-355.26 112.57,-353.78 115.62,-358.11 117.65,-355.26"/>
<text text-anchor="middle" x="177.74" y="-381.63" font-family="Times,serif" font-size="14.00">π₁</text>
</g>
<!-- n7 -->
<g id="node7" class="node">
<title>n7</title>
<ellipse fill="none" stroke="black" cx="585.24" cy="-424.54" rx="23.17" ry="10.71"/>
<text text-anchor="middle" x="585.24" y="-420.84" font-family="Times,serif" font-size="14.00">Q:Ω₀</text>
</g>
<!-- n11 -->
<g id="node11" class="node">
<title>n11</title>
<ellipse fill="none" stroke="black" cx="506.24" cy="-51.61" rx="68.68" ry="10.71"/>
<text text-anchor="middle" x="506.24" y="-47.91" font-family="Times,serif" font-size="14.00">heating_Q̇:Ω•</text>
</g>
<!-- n7&#45;&gt;n11 -->
<g id="edge12" class="edge">
<title>n7&#45;&gt;n11</title>
<path fill="none" stroke="black" d="M603.22,-417.65C629.74,-407.7 676.24,-384.87 676.24,-347.12 676.24,-347.12 676.24,-347.12 676.24,-125.65 676.24,-79.62 622.99,-62.24 576.09,-55.85"/>
<polygon fill="black" stroke="black" points="576.17,-54.1 570.99,-55.19 575.73,-57.57 576.17,-54.1"/>
<text text-anchor="middle" x="682.24" y="-234.1" font-family="Times,serif" font-size="14.00">∂ₜ</text>
</g>
<!-- n20 -->
<g id="node20" class="node">
<title>n20</title>
<polygon fill="none" stroke="black" points="600.24,-353.62 550.24,-353.62 550.24,-338.62 600.24,-338.62 600.24,-353.62"/>
<text text-anchor="middle" x="575.24" y="-342.42" font-family="Times,serif" font-size="14.00">Ω₀×ΩP</text>
</g>
<!-- n7&#45;&gt;n20 -->
<g id="edge23" class="edge">
<title>n7&#45;&gt;n20</title>
<path fill="none" stroke="black" stroke-dasharray="5,2" d="M583.97,-413.86C582.14,-399.84 578.74,-373.91 576.77,-358.83"/>
<polygon fill="black" stroke="black" points="578.5,-358.53 576.11,-353.8 575.03,-358.99 578.5,-358.53"/>
<text text-anchor="middle" x="588.74" y="-381.63" font-family="Times,serif" font-size="14.00">π₁</text>
</g>
<!-- n8 -->
<g id="node8" class="node">
<title>n8</title>
<ellipse fill="none" stroke="black" cx="382.24" cy="-385.33" rx="68.68" ry="10.71"/>
<text text-anchor="middle" x="382.24" y="-381.63" font-family="Times,serif" font-size="14.00">heating_κ:ΩC</text>
</g>
<!-- n8&#45;&gt;n19 -->
<g id="edge20" class="edge">
<title>n8&#45;&gt;n19</title>
<path fill="none" stroke="black" stroke-dasharray="5,2" d="M382.24,-374.62C382.24,-354.55 382.24,-308.56 382.24,-286.77"/>
<polygon fill="black" stroke="black" points="383.99,-286.54 382.24,-281.54 380.49,-286.54 383.99,-286.54"/>
<text text-anchor="middle" x="389.74" y="-342.42" font-family="Times,serif" font-size="14.00">π₁</text>
</g>
<!-- n9 -->
<g id="node9" class="node">
<title>n9</title>
<ellipse fill="none" stroke="black" cx="695.24" cy="-424.54" rx="68.68" ry="10.71"/>
<text text-anchor="middle" x="695.24" y="-420.84" font-family="Times,serif" font-size="14.00">heating_λ:ΩC</text>
</g>
<!-- n10 -->
<g id="node10" class="node">
<title>n10</title>
<ellipse fill="none" stroke="black" cx="471.24" cy="-424.54" rx="72.66" ry="10.71"/>
<text text-anchor="middle" x="471.24" y="-420.84" font-family="Times,serif" font-size="14.00">heating_Q₀:ΩP</text>
</g>
<!-- n10&#45;&gt;n20 -->
<g id="edge24" class="edge">
<title>n10&#45;&gt;n20</title>
<path fill="none" stroke="black" stroke-dasharray="5,2" d="M484.41,-413.86C504.33,-399.23 541.91,-371.61 561.92,-356.91"/>
<polygon fill="black" stroke="black" points="563.15,-358.17 566.14,-353.8 561.07,-355.35 563.15,-358.17"/>
<text text-anchor="middle" x="543.74" y="-381.63" font-family="Times,serif" font-size="14.00">π₂</text>
</g>
<!-- n11&#45;&gt;n16 -->
<g id="edge9" class="edge">
<title>n11&#45;&gt;n16</title>
<path fill="none" stroke="black" d="M481.79,-41.65C451.65,-30.62 402.16,-12.49 383.59,-5.69"/>
<polygon fill="black" stroke="black" points="383.84,-3.92 378.55,-3.85 382.64,-7.21 383.84,-3.92"/>
</g>
<!-- n12 -->
<g id="node12" class="node">
<title>n12</title>
<ellipse fill="none" stroke="black" cx="411.24" cy="-201.69" rx="72.66" ry="10.71"/>
<text text-anchor="middle" x="411.24" y="-197.99" font-family="Times,serif" font-size="14.00">heating_•2:Ω•</text>
</g>
<!-- n21 -->
<g id="node21" class="node">
<title>n21</title>
<ellipse fill="none" stroke="black" cx="506.24" cy="-126.65" rx="13.37" ry="13.37"/>
<text text-anchor="middle" x="506.24" y="-122.95" font-family="Times,serif" font-size="14.00">Σ1</text>
</g>
<!-- n12&#45;&gt;n21 -->
<g id="edge27" class="edge">
<title>n12&#45;&gt;n21</title>
<path fill="none" stroke="black" stroke-dasharray="5,2" d="M423.66,-191.14C441.24,-177.62 473.31,-152.97 491.88,-138.68"/>
<polygon fill="black" stroke="black" points="492.96,-140.07 495.86,-135.63 490.83,-137.29 492.96,-140.07"/>
</g>
<!-- n13 -->
<g id="node13" class="node">
<title>n13</title>
<ellipse fill="none" stroke="black" cx="575.24" cy="-201.69" rx="72.66" ry="10.71"/>
<text text-anchor="middle" x="575.24" y="-197.99" font-family="Times,serif" font-size="14.00">heating_•3:Ω•</text>
</g>
<!-- n13&#45;&gt;n21 -->
<g id="edge28" class="edge">
<title>n13&#45;&gt;n21</title>
<path fill="none" stroke="black" stroke-dasharray="5,2" d="M566.22,-191.14C554.06,-178.27 532.38,-155.32 518.68,-140.82"/>
<polygon fill="black" stroke="black" points="519.75,-139.4 515.04,-136.97 517.2,-141.8 519.75,-139.4"/>
</g>
<!-- n14 -->
<g id="node14" class="node">
<title>n14</title>
<ellipse fill="none" stroke="black" cx="575.24" cy="-273.9" rx="72.66" ry="10.71"/>
<text text-anchor="middle" x="575.24" y="-270.2" font-family="Times,serif" font-size="14.00">heating_•4:Ω•</text>
</g>
<!-- n14&#45;&gt;n13 -->
<g id="edge13" class="edge">
<title>n14&#45;&gt;n13</title>
<path fill="none" stroke="black" d="M575.24,-263.14C575.24,-251.3 575.24,-231.22 575.24,-217.47"/>
<polygon fill="black" stroke="black" points="576.99,-217.37 575.24,-212.37 573.49,-217.37 576.99,-217.37"/>
<text text-anchor="middle" x="580.24" y="-234.1" font-family="Times,serif" font-size="14.00">λ</text>
</g>
<!-- n15 -->
<g id="node15" class="node">
<title>n15</title>
</g>
<!-- n15&#45;&gt;n1 -->
<g id="edge1" class="edge">
<title>n15&#45;&gt;n1</title>
<path fill="none" stroke="black" d="M418.21,-472.67C410.2,-470.75 380.04,-463.29 356.24,-454.15 342.1,-448.72 326.69,-441.34 315.02,-435.43"/>
<polygon fill="black" stroke="black" points="315.52,-433.72 310.27,-433 313.92,-436.84 315.52,-433.72"/>
</g>
<!-- n15&#45;&gt;n3 -->
<g id="edge2" class="edge">
<title>n15&#45;&gt;n3</title>
<path fill="none" stroke="black" d="M418.12,-472.85C397.49,-469.89 231.36,-446.07 143.02,-433.4"/>
<polygon fill="black" stroke="black" points="143.04,-431.63 137.84,-432.66 142.54,-435.1 143.04,-431.63"/>
</g>
<!-- n15&#45;&gt;n7 -->
<g id="edge3" class="edge">
<title>n15&#45;&gt;n7</title>
<path fill="none" stroke="black" d="M422.43,-472.53C435.11,-468.98 500.23,-450.68 553.24,-435.15 555.95,-434.35 558.79,-433.51 561.61,-432.67"/>
<polygon fill="black" stroke="black" points="562.35,-434.28 566.64,-431.17 561.35,-430.93 562.35,-434.28"/>
</g>
<!-- n15&#45;&gt;n8 -->
<g id="edge4" class="edge">
<title>n15&#45;&gt;n8</title>
<path fill="none" stroke="black" d="M419.02,-472.12C414.25,-468.04 396.76,-452.3 389.24,-435.15 384.54,-424.43 382.86,-411.24 382.32,-401.27"/>
<polygon fill="black" stroke="black" points="384.06,-401.03 382.12,-396.1 380.56,-401.17 384.06,-401.03"/>
</g>
<!-- n15&#45;&gt;n9 -->
<g id="edge5" class="edge">
<title>n15&#45;&gt;n9</title>
<path fill="none" stroke="black" d="M422.29,-472.79C440.44,-469.65 574.3,-446.48 647.58,-433.79"/>
<polygon fill="black" stroke="black" points="648.13,-435.47 652.75,-432.9 647.53,-432.03 648.13,-435.47"/>
</g>
<!-- n15&#45;&gt;n10 -->
<g id="edge6" class="edge">
<title>n15&#45;&gt;n10</title>
<path fill="none" stroke="black" d="M421.5,-471.97C426.34,-467.46 444.09,-450.89 457.01,-438.83"/>
<polygon fill="black" stroke="black" points="458.38,-439.94 460.84,-435.25 455.99,-437.38 458.38,-439.94"/>
</g>
<!-- n17&#45;&gt;n4 -->
<g id="edge16" class="edge">
<title>n17&#45;&gt;n4</title>
<path fill="none" stroke="black" d="M103.24,-338.38C103.24,-327.26 103.24,-304.77 103.24,-289.77"/>
<polygon fill="black" stroke="black" points="104.99,-289.62 103.24,-284.62 101.49,-289.62 104.99,-289.62"/>
<text text-anchor="middle" x="106.74" y="-306.31" font-family="Times,serif" font-size="14.00">*</text>
</g>
<!-- n18&#45;&gt;n5 -->
<g id="edge19" class="edge">
<title>n18&#45;&gt;n5</title>
<path fill="none" stroke="black" d="M228.84,-193.94C242,-184.91 266.6,-168.79 289.24,-158.08 305.89,-150.21 325.15,-143.27 341.31,-138"/>
<polygon fill="black" stroke="black" points="342,-139.62 346.22,-136.43 340.93,-136.29 342,-139.62"/>
<text text-anchor="middle" x="292.74" y="-161.88" font-family="Times,serif" font-size="14.00">*</text>
</g>
<!-- n19&#45;&gt;n12 -->
<g id="edge22" class="edge">
<title>n19&#45;&gt;n12</title>
<path fill="none" stroke="black" d="M385.02,-266.17C389.65,-254.95 399.07,-232.16 405.26,-217.16"/>
<polygon fill="black" stroke="black" points="406.93,-217.69 407.23,-212.4 403.7,-216.36 406.93,-217.69"/>
<text text-anchor="middle" x="403.74" y="-234.1" font-family="Times,serif" font-size="14.00">*</text>
</g>
<!-- n20&#45;&gt;n14 -->
<g id="edge25" class="edge">
<title>n20&#45;&gt;n14</title>
<path fill="none" stroke="black" d="M575.24,-338.38C575.24,-327.26 575.24,-304.77 575.24,-289.77"/>
<polygon fill="black" stroke="black" points="576.99,-289.62 575.24,-284.62 573.49,-289.62 576.99,-289.62"/>
<text text-anchor="middle" x="577.74" y="-306.31" font-family="Times,serif" font-size="14.00">&#45;</text>
</g>
<!-- n21&#45;&gt;n11 -->
<g id="edge26" class="edge">
<title>n21&#45;&gt;n11</title>
<path fill="none" stroke="black" d="M506.24,-112.93C506.24,-100.34 506.24,-81.07 506.24,-67.71"/>
<polygon fill="black" stroke="black" points="507.99,-67.38 506.24,-62.38 504.49,-67.38 507.99,-67.38"/>
<text text-anchor="middle" x="512.74" y="-84.01" font-family="Times,serif" font-size="14.00">+</text>
</g>
</g>
</svg>
